<?xml version="1.0" standalone="no"?>
<!DOCTYPE svg PUBLIC "-//W3C//DTD SVG 20010904//EN"
 "http://www.w3.org/TR/2001/REC-SVG-20010904/DTD/svg10.dtd">
<svg version="1.0" xmlns="http://www.w3.org/2000/svg"
 width="590.000000pt" height="590.000000pt" viewBox="0 0 590.000000 590.000000"
 preserveAspectRatio="xMidYMid meet">

<g transform="translate(0.000000,590.000000) scale(0.100000,-0.100000)"
fill="#000000" stroke="none">
<path d="M2740 5819 c-136 -12 -363 -52 -504 -89 -661 -171 -1171 -514 -1590
-1070 -260 -345 -452 -818 -521 -1285 -18 -123 -35 -393 -26 -412 4 -7 49 26
121 89 63 55 129 111 147 125 26 20 32 33 38 76 46 387 186 782 392 1109 226
358 585 682 979 883 384 197 755 288 1179 288 522 1 1016 -155 1445 -456 385
-270 710 -685 890 -1137 48 -119 121 -369 143 -484 17 -88 16 -88 -56 -130
-190 -109 -408 -51 -488 129 -19 42 -24 76 -30 210 -7 170 -21 230 -73 318
-63 109 -178 201 -295 238 -65 20 -87 21 -1091 27 l-1025 7 -22 48 c-52 108
-159 179 -280 185 -215 12 -380 -163 -359 -379 l7 -69 -416 -429 -417 -428
-58 -6 c-109 -10 -209 -75 -256 -168 -19 -39 -47 -65 -140 -135 -161 -121
-226 -208 -260 -351 -25 -104 -15 -192 41 -361 108 -333 206 -449 430 -513 79
-23 89 -23 700 -27 689 -4 698 -3 788 62 24 17 248 237 497 488 551 557 499
521 756 526 l171 4 37 -52 c91 -126 267 -173 413 -110 72 31 144 109 173 188
l23 62 504 0 505 0 165 153 c91 83 216 197 277 251 61 55 112 107 114 117 8
47 -69 351 -143 566 -130 379 -288 667 -517 943 -297 356 -703 653 -1120 819
-65 26 -257 77 -473 126 -240 54 -540 75 -775 54z m-594 -1544 c88 -67 85
-201 -7 -262 -54 -36 -104 -39 -159 -11 -61 32 -90 77 -90 143 0 134 150 210
256 130z m2251 -345 c58 -25 116 -82 141 -139 9 -21 16 -65 16 -107 1 -113
-24 -149 -257 -383 l-198 -198 -71 36 c-65 33 -77 36 -157 36 -72 0 -95 -4
-142 -26 -32 -15 -75 -45 -97 -67 l-41 -41 -273 -3 c-258 -3 -276 -5 -333 -27
-57 -22 -89 -52 -560 -527 -345 -346 -514 -510 -545 -526 l-45 -23 -530 0
-530 0 -52 27 c-59 32 -115 84 -139 130 -34 65 -74 199 -74 246 0 74 27 139
81 195 26 27 51 47 56 45 103 -51 133 -61 187 -65 229 -19 410 191 353 409
l-15 57 404 414 403 415 88 4 c106 5 172 35 236 104 l42 46 1000 -5 1000 -4
52 -23z m-3453 -948 c47 -28 69 -66 74 -129 3 -48 0 -64 -20 -92 -38 -56 -73
-76 -131 -76 -147 0 -218 161 -119 267 55 58 126 69 196 30z m3013 -3 c109
-67 90 -238 -32 -284 -176 -68 -301 176 -145 283 45 30 129 31 177 1z"/>
<path d="M2648 5109 c-21 -12 -24 -69 -6 -87 16 -16 739 -17 769 -2 23 13 26
62 3 84 -13 14 -62 16 -382 16 -231 0 -374 -4 -384 -11z"/>
<path d="M2653 4828 c-30 -15 -32 -72 -4 -88 30 -15 1283 -14 1299 2 20 20 15
76 -7 88 -28 14 -1258 13 -1288 -2z"/>
<path d="M2653 4548 c-32 -15 -35 -63 -5 -85 21 -17 733 -19 763 -3 25 14 25
61 1 83 -17 15 -57 17 -378 16 -236 0 -367 -4 -381 -11z"/>
<path d="M5628 2827 l-156 -152 -7 -55 c-4 -30 -17 -104 -30 -165 -108 -504
-357 -952 -732 -1316 -523 -506 -1213 -760 -1928 -710 l-167 12 -117 -113
c-103 -101 -138 -138 -129 -138 2 0 55 -9 118 -19 554 -92 1118 -23 1605 197
672 304 1201 843 1483 1512 116 275 186 564 211 875 6 72 14 151 16 178 3 26
2 47 -2 47 -4 -1 -78 -69 -165 -153z"/>
<path d="M3867 2062 c-22 -25 -21 -48 3 -72 19 -19 33 -20 530 -20 497 0 511
1 530 20 24 24 25 38 4 68 l-15 22 -518 0 c-489 0 -519 -1 -534 -18z"/>
<path d="M3109 1987 c-135 -50 -205 -148 -217 -303 l-7 -84 -199 -207 c-681
-709 -725 -752 -754 -743 -89 27 -317 151 -457 249 -152 107 -403 333 -492
443 l-55 68 -87 0 c-47 0 -126 7 -176 14 -49 8 -94 12 -98 9 -24 -15 208 -308
378 -478 117 -116 298 -262 455 -365 140 -91 391 -219 550 -280 l105 -40 125
129 c69 72 306 316 528 545 l403 414 88 -1 c81 -1 94 2 154 31 129 64 200 198
177 337 -18 111 -81 199 -176 246 -59 29 -187 37 -245 16z m199 -183 c109 -84
62 -263 -75 -281 -55 -7 -126 25 -153 69 -27 45 -27 129 0 173 47 75 156 94
228 39z"/>
<path d="M3872 1784 c-27 -18 -29 -55 -4 -77 17 -15 60 -17 415 -17 l396 0 15
22 c21 29 20 51 -2 71 -17 15 -60 17 -408 17 -336 0 -393 -2 -412 -16z"/>
<path d="M3872 1504 c-27 -18 -29 -55 -4 -77 16 -15 49 -17 256 -17 144 0 245
4 257 10 23 13 26 62 3 84 -23 24 -478 24 -512 0z"/>
</g>
</svg>
